<svg data-v-fde0c5aa="" xmlns="http://www.w3.org/2000/svg" viewBox="0 0 300 300" class="iconAbove"><!----><defs data-v-fde0c5aa=""><!----></defs><rect data-v-fde0c5aa="" fill="transparent" x="0" y="0" width="300px" height="300px" class="logo-background-square"></rect><defs data-v-fde0c5aa=""><!----></defs><g data-v-fde0c5aa="" id="14e871e9-e426-4e93-adad-7aa864056623" fill="#000000" transform="matrix(6.394428199679766,0,0,6.394428199679766,41.55049901405359,167.1528980889624)"><path d="M6.23 14.35L6.72 14.35L6.72 7.13L6.23 7.13L6.23 12.29C6.23 13.50 5.21 14.08 4.12 14.08C2.79 14.08 2.04 13.36 2.04 11.73L2.04 7.13L1.55 7.13L1.55 11.82C1.55 13.57 2.44 14.52 4.00 14.52C5.26 14.52 5.92 13.92 6.19 13.29L6.23 13.29ZM12.81 14.52C14.45 14.52 15.67 13.83 15.67 12.38C15.67 11.02 14.60 10.68 13.37 10.51L12.24 10.35C11.14 10.19 10.43 9.91 10.43 8.92C10.43 7.85 11.27 7.38 12.57 7.38C13.92 7.38 14.60 7.90 15.06 8.43L15.40 8.09C14.83 7.49 13.99 6.96 12.59 6.96C11.13 6.96 9.94 7.52 9.94 8.95C9.94 10.30 11.00 10.63 12.25 10.81L13.37 10.96C14.46 11.12 15.18 11.40 15.18 12.40C15.18 13.55 14.22 14.10 12.81 14.10C11.56 14.10 10.67 13.69 9.94 12.80L9.59 13.09C10.36 14.03 11.41 14.52 12.81 14.52ZM23.06 14.35L23.55 14.35L23.55 3.99L23.06 3.99L23.06 8.23L23.02 8.23C22.68 7.56 21.94 6.96 20.76 6.96C18.94 6.96 17.85 8.26 17.85 10.74C17.85 13.22 18.94 14.52 20.76 14.52C21.94 14.52 22.68 13.92 23.02 13.24L23.06 13.24ZM20.87 14.08C19.28 14.08 18.38 12.95 18.38 11.14L18.38 10.33C18.38 8.53 19.28 7.39 20.87 7.39C22.02 7.39 23.06 8.11 23.06 9.20L23.06 12.28C23.06 13.37 22.02 14.08 20.87 14.08ZM26.43 14.35L32.37 14.35L32.37 13.92L29.65 13.92L29.65 3.99L26.43 3.99L26.43 4.42L29.16 4.42L29.16 13.92L26.43 13.92Z"></path></g><defs data-v-fde0c5aa=""><linearGradient data-v-fde0c5aa="" gradientTransform="rotate(25)" id="3652fa79-d8ce-4342-865b-816bd33474d7" x1="0%" y1="0%" x2="100%" y2="0%"><stop data-v-fde0c5aa="" offset="0%" stop-color="#41E296" stop-opacity="1"></stop><stop data-v-fde0c5aa="" offset="100%" stop-color="#00C4EE" stop-opacity="1"></stop></linearGradient></defs><g data-v-fde0c5aa="" id="e85fd4a1-42fb-4c09-a0ed-cde684bab559" stroke="none" fill="url(#3652fa79-d8ce-4342-865b-816bd33474d7)" transform="matrix(4.208333333333333,0,0,4.208333333333333,82.66666666666667,40)"><path d="M9.382 8.675h13.943v13.943L32 31.293V0H.707zM22.618 23.325H8.675V9.382L0 .707V32h31.293z"></path></g><!----></svg>